HIERARCHY
ROOT Spine
{
    OFFSET 0.0 0.0 -0.0
    CHANNELS 6 Xposition Yposition Zposition Zrotation Xrotation Yrotation
    JOINT ShoulderCenter
    {
        OFFSET 0.0 33.60853958129883 0.0
        CHANNELS 3 Zrotation Xrotation Yrotation
        JOINT LeftShoulder
        {
            OFFSET 17.732324600219727 0.0 0.0
            CHANNELS 3 Zrotation Xrotation Yrotation
            JOINT LeftElbow
            {
                OFFSET 29.74256134033203 0.0 0.0
                CHANNELS 3 Zrotation Xrotation Yrotation
                JOINT LeftHand
                {
                    OFFSET 32.387245178222656 0.0 0.0
                    CHANNELS 3 Zrotation Xrotation Yrotation
                    End Site
                    {
                        OFFSET 12.954896926879883 0.0 0.0
                    }
                }
            }
        }
        JOINT RightShoulder
        {
            OFFSET -17.732324600219727 0.0 0.0
            CHANNELS 3 Zrotation Xrotation Yrotation
            JOINT RightElbow
            {
                OFFSET -29.74256134033203 0.0 0.0
                CHANNELS 3 Zrotation Xrotation Yrotation
                JOINT RightHand
                {
                    OFFSET -32.387245178222656 0.0 0.0
                    CHANNELS 3 Zrotation Xrotation Yrotation
                    End Site
                    {
                        OFFSET -12.954896926879883 0.0 0.0
                    }
                }
            }
        }
        End Site
        {
            OFFSET 0.0 13.443415641784668 0.0
        }
    }
    JOINT LeftHip
    {
        OFFSET 16.69696024363509 -16.69696024363509 0.0
        CHANNELS 3 Zrotation Xrotation Yrotation
        JOINT LeftKnee
        {
            OFFSET 0.0 -42.08033752441406 0.0
            CHANNELS 3 Zrotation Xrotation Yrotation
            JOINT LeftFoot
            {
                OFFSET 0.0 -47.335411071777344 0.0
                CHANNELS 3 Zrotation Xrotation Yrotation
                End Site
                {
                    OFFSET 0.0 0.0 18.934162139892578
                }
            }
        }
    }
    JOINT RightHip
    {
        OFFSET -16.69696024363509 -16.69696024363509 0.0
        CHANNELS 3 Zrotation Xrotation Yrotation
        JOINT RightKnee
        {
            OFFSET 0.0 -42.08033752441406 0.0
            CHANNELS 3 Zrotation Xrotation Yrotation
            JOINT RightFoot
            {
                OFFSET 0.0 -47.335411071777344 0.0
                CHANNELS 3 Zrotation Xrotation Yrotation
                End Site
                {
                    OFFSET 0.0 0.0 18.934162139892578
                }
            }
        }
    }
}
MOTION
Frames: 14
Frame Time: 0.03333333333333333
117.9000015258789 16.5 32.10000228881836 23.355570429471726 -1.7073293204895437 -90.93159129079058 3.041704565869094e-07 -4.675198374972371e-07 1.8267700159037121 123.94690326576419 -10.151844268493504 -123.22436350240596 2.5240114800868837e-08 -1.6662096024517844e-06 53.53669814548467 8.827812596100317e-32 6.361109362927032e-15 -1.590277340731758e-15 -114.81653246118947 -4.446805322103856 136.44079207998269 -4.015511540365659e-07 7.67347259884364e-07 -77.40621761012817 1.5902773407317582e-15 2.2069531490250793e-32 1.5902773407317582e-15 -1.7212335332372803 -25.749269773360012 18.242235070076063 -0.6594828527297236 -2.680038783501734 6.550327311436517 7.951386703658791e-16 3.975693351829396e-16 4.770832022195274e-15 -8.359415223682706 -36.68831269958207 -63.648285377012265 -8.419192061278816 3.2264431292209195 14.64449174134475 -3.975693351829396e-16 1.5902773407317584e-15 2.1245111348838336e-15
117.70000457763672 16.5 31.700000762939453 23.962497902560052 -2.223226603252103 -91.28372197179286 -7.302153637787441e-07 6.571533842451028e-07 2.253710088329355 126.36803340974761 -10.014118255036191 -124.96633838582106 -3.090914277093353e-06 4.330326413552481e-06 56.5593310627458 0.0 -6.3611093629270335e-15 0.0 -114.70869203898096 -5.329193775697812 138.9978513735601 -3.1110605373725595e-06 2.230645485637252e-06 -78.59897798185581 3.1805546814635164e-15 -6.559894030518502e-15 1.8207363479456905e-31 -1.9043037758942007 -26.091925503924646 18.54950122383276 -0.6402858950556088 -2.9930249146278305 7.290193791673867 -2.4483386496996973e-32 3.9756933518293955e-16 7.056855699497176e-15 -8.32384597323432 -37.49600637007491 -63.86949475061581 -8.860248624124182 3.154761863742971 14.177693972270465 3.975693351829396e-16 1.5902773407317584e-15 1.5033090486604903e-15
117.5999984741211 16.399999618530273 31.400001525878906 24.88261140777081 -3.245101893102159 -91.79313262001489 -4.5003435470045875e-07 7.209379709795152e-07 2.148002976525754 127.97955516299811 -9.358478103752239 -127.32257300461268 -5.5356309039181e-06 6.656385000465014e-08 60.08243241496823 0.0 6.3611093629270335e-15 0.0 -117.05972280324126 -7.895228367307091 139.45050995759755 -1.5234444481722884e-06 1.3813404504930481e-06 -79.30493466553321 3.180554681463516e-15 -1.9878466759146975e-16 5.517382872562698e-33 -2.321040546137286 -27.33250877942039 21.005341037502276 -0.5874972434961523 -2.454476206746354 6.100698505183418 7.951386703658792e-16 2.155227684594804e-32 3.1060104311167155e-15 -8.664905250253025 -38.52439733053289 -62.451444293688226 -8.684845274399729 3.026043706048554 12.703097825181205 -3.975693351829397e-16 -1.5902773407317584e-15 -6.13747661188663e-15
117.4000015258789 16.30000114440918 31.099998474121094 25.492800092657536 -3.932556543644385 -91.64039223720653 3.789923834664135e-07 -5.105188668680581e-07 1.8977840847847811 130.09559512686258 -8.92570385912857 -128.6773752830387 -2.8306721897074814e-06 -5.551807359526099e-07 62.27103734404954 3.180554681463516e-15 0.0 0.0 -119.65284248818413 -9.177598368138618 138.6892305796161 -5.917003416005075e-06 -3.5758361060581446e-06 -79.75024459967705 3.1805546814635164e-15 -6.162324695335563e-15 -1.590277340731758e-15 -3.075680608451978 -27.67313835176779 20.92137346473761 -0.6479269518526887 -2.9897304899256465 7.159942842195355 7.951386703658792e-16 -3.9756933518293955e-16 4.770832022195275e-15 -10.223576329752671 -39.65471607429812 -67.6378565072393 -9.242661958415956 3.453195862530994 14.40977750772758 -3.9756933518293955e-16 9.310583597449553e-33 -2.6835930124848418e-15
117.20000457763672 16.200000762939453 30.599998474121094 26.029601055723596 -4.0980418498216995 -92.50923307520702 -2.7974676863839107e-06 2.664940702173416e-06 2.529841220728714 131.97828473923826 -8.006324217487245 -129.66436951679796 -6.403397883671508e-07 -3.5076436636850538e-06 62.96968203088226 3.1805546814635164e-15 -6.361109362927033e-15 1.5902773407317584e-15 -123.54521909740264 -10.289019496782721 137.16773641999944 6.315465881068206e-06 1.1897439316141228e-06 -79.1725448255268 0.0 -6.7586786981099735e-15 0.0 -2.441258641204102 -28.245559155564454 22.685772966488095 -0.6709588396315601 -2.8570446700964394 6.829295659738404 -7.951386703658792e-16 3.862168010793889e-32 -5.565970692561154e-15 -9.543539770685054 -40.510358778342166 -67.55863770379793 -9.367943326898702 3.5792832750623056 14.15109192123729 -3.975693351829397e-16 -7.951386703658792e-16 -8.59743687333107e-15
116.79999542236328 16.200000762939453 30.100000381469727 26.641641533583762 -4.10367886284046 -92.4655423908477 5.783364788341359e-08 -5.802060445906462e-07 3.2841024314869545 134.86741197660484 -8.267200904926247 -129.4371035707137 2.5702136633545867e-06 3.213634913000458e-06 64.05804328334686 0.0 0.0 1.5902773407317582e-15 -127.94838455848016 -9.788476320635782 136.2670570445967 1.5476716697857044e-06 8.067891166612933e-07 -78.69703424134951 -1.5902773407317582e-15 6.361109362927033e-15 8.827812596100317e-32 -2.498989130148358 -27.7475940520056 20.20019098981637 -0.8257756981479447 -4.580179254081859 10.616915256362445 -7.951386703658792e-16 3.9756933518293955e-16 5.491426442214353e-15 -8.709644221264988 -41.225965346858054 -66.78818976982691 -10.240308934820762 2.992422914147349 12.025719038628123 3.975693351829396e-16 1.793149433582877e-32 5.168401357378215e-15
116.5999984741211 16.200000762939453 29.600000381469727 27.638733192652115 -4.2790013792851775 -93.14935718412502 -9.987739097453091e-07 -3.14285145268095e-07 3.9268378663285675 136.0144896001435 -7.709244881066194 -128.83206205874606 3.6207673978106113e-06 1.187397903640182e-07 64.10739144979291 0.0 0.0 0.0 -131.66284924114487 -9.617762826277344 134.9674197414329 -2.22971641409996e-06 2.330669538111319e-06 -78.68304589531417 1.1034765745125397e-32 3.975693351829395e-16 -3.180554681463516e-15 -1.6882521105834156 -29.724569602549312 25.59902012503774 -0.3880927348266911 -2.734374276416537 6.723124600451991 -3.9756933518293955e-16 1.987846675914698e-16 -1.0237410380960694e-14 -8.479709556686807 -42.32768594160919 -65.64134842507366 -9.611215690954305 3.8776088902905994 14.15159158498533 0.0 0.0 -4.596895438052739e-16
116.29999542236328 16.100000381469727 29.0 28.173196101292124 -3.7612588526925754 -91.87693024648588 -1.5628511625731505e-06 1.267034311241233e-06 3.2115080815997197 136.31543137466332 -7.278715700531857 -128.23901468863545 5.909533432032633e-07 -4.625008458806565e-06 63.89755902452064 -3.1805546814635168e-15 -4.4139062980501586e-32 1.5902773407317584e-15 -132.84744680231853 -9.073706566078288 134.53479231551376 9.112193807448348e-07 -9.027506790558566e-08 -80.32411511656163 3.1805546814635168e-15 6.3611093629270335e-15 3.1805546814635168e-15 -1.3976614456859144 -30.033431199187092 24.7585298032625 -0.5717212252245262 -2.6881635994016317 6.540770067668178 -3.975693351829395e-16 3.975693351829395e-16 -2.8575295966273776e-15 -8.58802733317724 -42.78644604440973 -66.76854569822555 -10.548020255412846 4.155106609306257 16.204426480993497 0.0 0.0 -1.8014860500476953e-15
116.0 16.100000381469727 28.400001525878906 28.55581499931559 -3.7604770414303927 -90.09676685186525 -3.6941862225170655e-07 1.720106023806206e-06 1.8360550268141795 134.6217052465901 -6.954225274688224 -127.75779236614633 3.901673377964929e-06 -2.7264153627364285e-06 63.89165189957283 3.1805546814635164e-15 -4.4139062980501586e-32 -1.5902773407317582e-15 -134.41639936135135 -8.264990106013995 133.31194543689128 -4.583627822310181e-06 -2.61520268727365e-06 -79.5354001437927 1.5902773407317584e-15 0.0 0.0 -2.1095511367905915 -29.65957531040423 23.05805169113531 -1.0820279163644755 -4.133861468018185 9.73352515153431 -2.0948813094261494e-32 -1.1927080055488186e-15 -2.0126947593636313e-15 -9.178662604338989 -43.09380425181638 -67.47843841786637 -11.388779648056738 3.6172409217065025 14.96071173388157 -3.975693351829396e-16 8.513149354149476e-33 -2.4537482405822054e-15
115.80000305175781 16.100000381469727 27.700000762939453 29.08780141397281 -3.583911002506049 -90.11520385778192 -1.912344380221367e-06 1.8712737842337273e-06 2.8482159597168137 132.74512720802528 -6.879498262807951 -127.13058843510369 6.015053470334155e-06 -2.839867774922516e-06 64.10460872508284 0.0 0.0 0.0 -134.6219172360273 -7.733640269595123 132.884112736268 -5.73147759623542e-06 -2.0378433878003205e-06 -79.82079594674752 1.7655625192200634e-31 -6.3611093629270335e-15 3.1805546814635168e-15 -1.1147457188636345 -30.03928432200491 25.01437883541209 -1.2751435720382545 -4.0966063109100945 10.083992442182547 0.0 0.0 1.9629985924657646e-15 -8.656117524352595 -43.73844730378164 -66.20058615805115 -11.43252465885388 4.355369497043272 17.428908500448934 0.0 0.0 -1.3107364019312539e-15
115.5 16.0 27.000001907348633 29.320478599632267 -3.0765137902065374 -89.03276529680247 -1.074948431910247e-06 -7.519743173782733e-07 2.8180153928450054 131.59605753653923 -6.680388834315616 -126.66278739885081 -4.301866788034799e-06 3.080184233728967e-06 63.93295784227488 0.0 0.0 0.0 -133.57396280751448 -6.744836519719274 133.26312065470682 -2.381576753634481e-06 -1.41454139779713e-06 -80.21028242402629 0.0 0.0 0.0 -0.9172685294404832 -29.005148676496624 22.115046078763605 -1.8280291568962683 -6.346689131628411 15.111141897503433 -1.0862347530357812e-32 7.951386703658792e-16 1.5654292572828246e-15 -8.308801509490122 -44.24584289343805 -66.21914938013097 -12.6155194038564 4.548169605323554 18.857495127988393 0.0 0.0 3.264416963103668e-15
115.4000015258789 16.100000381469727 26.30000114440918 29.998686126156496 -2.726206609823519 -87.6949740887047 2.5519012263391894e-07 -5.440293065588567e-07 2.1314480111543777 129.77672669685273 -5.694035230629262 -126.23178071022443 2.378561777385752e-06 -2.4029184069926603e-06 64.0149687273588 0.0 0.0 0.0 -132.96476803140243 -5.638184652947483 133.36472070044906 3.904991606830083e-06 2.506488724228954e-06 -80.7844914966164 -1.5902773407317584e-15 -6.3611093629270335e-15 -3.1805546814635168e-15 -0.373370876780114 -30.37576768804162 25.31830373239594 -1.9237616201596313 -4.6866841895047715 11.565786818923838 -3.975693351829396e-16 -7.951386703658792e-16 -7.454425034680117e-16 -8.322789276059304 -44.1176319514193 -64.11926052831204 -11.736788392501644 4.726235201413592 19.343781099226348 0.0 0.0 -7.500626939842978e-15
115.10000610351562 16.0 25.700000762939453 30.31804400869089 -2.7361776845709715 -86.61590463887447 -1.728536048437762e-06 1.1197255882533794e-06 1.446451105538224 128.5983028575537 -4.913748520744326 -126.27798171856236 4.7360582365792375e-06 4.77281385905053e-07 64.07059993015014 0.0 0.0 0.0 -133.1002784379808 -4.7957629251143485 133.31190270738878 -1.7023164230804024e-06 3.682974045403334e-06 -80.79364890891178 1.5902773407317584e-15 6.3611093629270335e-15 -8.827812596100317e-32 -0.8548644168150799 -30.13073193008685 24.83556819699087 -2.134388933211455 -6.000217059490906 14.500820178996786 0.0 0.0 2.1617832600572342e-15 -8.882295287584443 -44.444523144806695 -65.07630526000335 -12.230482399812868 4.8827173330164175 19.962886114084405 0.0 0.0 -1.8589472430233545e-15
114.9000015258789 16.0 25.0 30.612619612397737 -2.5576658563561026 -86.8530178364179 -1.0799949901958097e-06 3.2857196481216845e-07 1.602284161709204 129.34972468751212 -3.86359887570504 -126.19070962275272 4.9437911580771676e-06 -2.27118294389018e-06 63.741703621329584 3.1805546814635168e-15 0.0 0.0 -133.99287263671667 -4.521579256498581 132.91166300120904 3.7261035481511157e-07 1.4530319129881936e-06 -80.46007806376925 -1.590277340731758e-15 -7.156248033292912e-15 -9.931289170612858e-32 0.10261981647837008 -30.45240336799917 28.17272724617816 -2.2574799528219174 -5.700864695849764 14.247092102556254 3.975693351829397e-16 2.4483386496996973e-32 7.056855699497179e-15 -7.9250668815008884 -44.5688002560953 -63.01252914299616 -11.677897768551531 5.165338144725616 19.613924852146468 1.987846675914698e-16 4.5226105943919095e-34 2.6071075056185934e-16
